Coordinates
version=1
nRows=24
nColumns=19
inDegrees=yes

Units are S.I. units (second, meters, Newtons, ...)
If the header above contains a line with 'inDegrees', this indicates whether rotational values are in degrees (yes) or radians (no).

endheader
time	pelvis_tilt	pelvis_list	pelvis_rotation	pelvis_tx	pelvis_ty	pelvis_tz	hip_flexion_r	hip_adduction_r	hip_rotation_r	knee_angle_r	knee_angle_r_beta	ankle_angle_r	hip_flexion_l	hip_adduction_l	hip_rotation_l	knee_angle_l	knee_angle_l_beta	ankle_angle_l
     15.02000000	    -11.31804788	     -4.51588886	     -7.78470111	      2.20972206	      1.03423753	      1.02941431	     36.13435361	     10.30773138	     -4.98606128	      9.90350364	      0.17284875	      1.16463425	    -12.91164983	     -8.90093316	    -18.53088053	     54.74024464	      0.95539750	    -20.70367474
     15.02666667	    -10.78168072	     -4.58574928	     -7.95408564	      2.20890196	      1.03160073	      1.02977298	     36.09314428	     10.15166368	     -6.30393073	     12.45269025	      0.21734045	      1.53862898	    -12.36997174	     -9.25739597	    -18.26469103	     58.09824113	      1.01400560	    -20.05277287
     15.03333333	     -9.82450949	     -4.88336567	     -8.20218186	      2.20812960	      1.02913276	      1.02993525	     35.64706958	     10.09814249	     -7.69516017	     15.53321821	      0.27110580	      2.00992709	    -12.30843217	     -9.78336234	    -18.22834911	     61.31501267	      1.07014885	    -19.26478256
     15.04000000	     -9.27114099	     -4.86853056	     -8.48268135	      2.20705471	      1.02569067	      1.02994846	     35.87110844	      9.66929603	     -8.97434838	     19.36871196	      0.33804780	      2.64835582	    -11.58416657	     -9.97098744	    -17.97471570	     64.56098607	      1.12680178	    -18.21568764
     15.04666667	     -8.25394708	     -5.19491288	     -8.87137145	      2.20615674	      1.02253922	      1.02980575	     35.41278952	      9.50336419	    -10.03993347	     23.23378225	      0.40550600	      3.43271460	    -11.45249564	    -10.47393655	    -18.07072948	     67.63739964	      1.18049532	    -17.01421313
     15.05333333	     -7.77251634	     -5.06081511	     -9.21122569	      2.20495732	      1.01843895	      1.02944557	     35.62516168	      8.87579971	    -10.71516948	     27.42680975	      0.47868813	      4.46570016	    -10.42580669	    -10.48573121	    -17.77730782	     70.73961453	      1.23463919	    -15.64666810
     15.06000000	     -7.11114896	     -5.17881609	     -9.62264783	      2.20384774	      1.01457685	      1.02900766	     35.37066319	      8.53201007	    -11.05668033	     31.35020245	      0.54716425	      5.72428929	     -9.60190087	    -10.75110727	    -17.66497951	     73.70428038	      1.28638237	    -14.18045166
     15.06666667	     -6.58991775	     -5.31380291	    -10.06425773	      2.20264808	      1.01066823	      1.02857644	     35.04891122	      8.29882137	    -11.03947114	     34.99919098	      0.61085112	      7.25540355	     -8.51402924	    -11.05371936	    -17.53057712	     76.58623467	      1.33668196	    -12.64986451
     15.07333333	     -5.88556078	     -5.79631587	    -10.52307895	      2.20145101	      1.00733631	      1.02821878	     34.16314447	      8.45798170	    -10.87549995	     38.14407786	      0.66573975	      9.06231909	     -7.63643371	    -11.80265665	    -17.56760433	     79.32548611	      1.38449091	    -11.25263994
     15.08000000	     -6.20042271	     -5.57649022	    -10.97176540	      2.19982012	      1.00308840	      1.02792338	     34.36976501	      8.17949546	    -10.19177960	     41.17057994	      0.71856217	     11.09163590	     -5.18901235	    -11.81314038	    -17.05314044	     82.07358562	      1.43245430	     -9.77529672
     15.08666667	     -5.95793028	     -5.94484954	    -11.38964040	      2.19841845	      1.00022248	      1.02769612	     33.45035205	      8.42905237	     -9.62813102	     43.45448836	      0.75842390	     13.38166353	     -3.46933398	    -12.48346832	    -16.76171560	     84.54140975	      1.47552595	     -8.42732972
     15.09333333	     -5.81119013	     -6.20517285	    -11.74214480	      2.19682361	      0.99791100	      1.02768416	     32.36659867	      8.62366579	     -8.95416526	     45.25017334	      0.78976451	     15.71682655	     -1.46329061	    -13.12591545	    -16.36798493	     86.81781931	      1.51525680	     -7.34020102
     15.10000000	     -7.29516963	     -5.86801184	    -11.85756472	      2.19496385	      0.99423286	      1.02753252	     32.95806741	      8.43544593	     -8.29630073	     46.72398949	      0.81548746	     17.77651943	      2.86750470	    -13.32605316	    -15.23364390	     89.16597614	      1.55623986	     -6.32651221
     15.10666667	     -7.88357076	     -5.82504617	    -11.86939069	      2.19333423	      0.99253750	      1.02742855	     32.15366896	      8.36568566	     -7.71837388	     47.52930113	      0.82954280	     19.94029078	      6.15020532	    -13.66797261	    -14.21063313	     91.01832161	      1.58856939	     -5.45187892
     15.11333333	     -7.68047470	     -5.85991771	    -11.98379798	      2.19173975	      0.99259648	      1.02760505	     30.23526537	      8.38834095	     -6.77756058	     47.87974371	      0.83565917	     21.73099463	      8.48610851	    -13.91179677	    -13.44530071	     92.37973269	      1.61233050	     -4.78352133
     15.12000000	     -9.00991057	     -5.61771922	    -11.28554892	      2.19069641	      0.99145760	      1.02710631	     29.69564409	      7.85299563	     -7.02023985	     47.67191557	      0.83203189	     23.56508615	     12.97568081	    -14.01220720	    -11.68876881	     93.68699694	      1.63514656	     -4.05195371
     15.12666667	     -9.27516473	     -5.42710970	    -10.67702043	      2.18988550	      0.99243531	      1.02682397	     27.78312140	      7.34717465	     -6.90099004	     47.04606938	      0.82110881	     24.86668504	     16.10349322	    -13.85691647	    -10.31833589	     94.37481495	      1.64715125	     -3.43193214
     15.13333333	     -9.32821498	     -4.96976104	    -10.46991812	      2.18948623	      0.99448524	      1.02731261	     25.48057594	      6.84784931	     -6.10791183	     46.05670739	      0.80384119	     25.61903097	     18.69485063	    -13.50391140	     -9.68923887	     94.47501193	      1.64890002	     -2.85461229
     15.14000000	     -9.29896220	     -4.76511633	     -8.93947505	      2.18941304	      0.99685685	      1.02621948	     22.89801839	      5.89727066	     -7.07690365	     44.72678671	      0.78062969	     26.19465595	     21.61119670	    -12.82205606	     -7.72212633	     94.43854691	      1.64826358	     -2.31076536
     15.14666667	     -9.04908280	     -4.27069660	     -7.84917608	      2.18977641	      1.00018201	      1.02584128	     19.96863308	      4.98490018	     -7.36697988	     43.11370537	      0.75247611	     26.10575459	     23.88029957	    -11.91994754	     -6.59982477	     93.81044951	      1.63730122	     -1.75688502
     15.15333333	     -8.59297130	     -3.67060954	     -6.64922522	      2.19067740	      1.00421192	      1.02551547	     16.69696059	      3.99273900	     -7.80580819	     41.25217436	      0.71998627	     25.47105474	     25.69855743	    -10.83285960	     -5.68053346	     92.73436103	      1.61851993	     -1.19870544
     15.16000000	     -7.74059535	     -3.03571151	     -5.43240608	      2.19198760	      1.00904873	      1.02524905	     12.87120898	      3.03266008	     -8.31847861	     39.10161110	      0.68245186	     24.24585103	     26.82567038	     -9.68652528	     -5.04303474	     91.25787801	      1.59275044	     -0.60906607
     15.16666667	     -6.65127708	     -2.32075828	     -4.43359213	      2.19369620	      1.01447534	      1.02536541	      8.71677750	      2.18557823	     -8.52825352	     36.72930466	      0.64104730	     22.43681585	     27.36209232	     -8.60783101	     -4.88738564	     89.36243234	      1.55966867	      0.02654335
     15.17333333	     -6.10651340	     -1.37367579	     -3.28034513	      2.19543275	      1.01921853	      1.02522365	      5.24782323	      1.14313969	     -9.11840145	     34.48696194	      0.60191103	     20.10065550	     28.39323603	     -7.19110686	     -4.72648364	     87.23184201	      1.52248286	      0.59176154
